<svg width="60" height="60" viewBox="0 0 60 60" fill="none" xmlns="http://www.w3.org/2000/svg" xmlns:xlink="http://www.w3.org/1999/xlink" class="diamond" aria-hidden="true" style="translate: none; rotate: none; scale: none; transform: translate(0px, 0px);">
<path d="M27.1716 1.82843C28.7337 0.266333 31.2663 0.26633 32.8284 1.82843L58.1716 27.1716C59.7337 28.7337 59.7337 31.2663 58.1716 32.8284L32.8284 58.1716C31.2663 59.7337 28.7337 59.7337 27.1716 58.1716L1.82843 32.8284C0.266333 31.2663 0.26633 28.7337 1.82843 27.1716L27.1716 1.82843Z" fill="url(#paint0_linear_2080_57095)"></path>
<path d="M27.1716 1.82843C28.7337 0.266333 31.2663 0.26633 32.8284 1.82843L58.1716 27.1716C59.7337 28.7337 59.7337 31.2663 58.1716 32.8284L32.8284 58.1716C31.2663 59.7337 28.7337 59.7337 27.1716 58.1716L1.82843 32.8284C0.266333 31.2663 0.26633 28.7337 1.82843 27.1716L27.1716 1.82843Z" fill="url(#pattern-home-animate-diamond-0)" fill-opacity="0.6" style="mix-blend-mode:multiply"></path>
<defs>
<pattern id="pattern-home-animate-diamond-0" patternContentUnits="objectBoundingBox" width="3.22581" height="3.22581">
<use xlink:href="#svg-noise" transform="scale(0.00645161)"></use>
</pattern>
<linearGradient id="paint0_linear_2080_57095" x1="-35.7015" y1="-8.17164" x2="74.4179" y2="35.0896" gradientUnits="userSpaceOnUse">
<stop offset="0.427083" stop-color="#FF8709"></stop>
<stop offset="0.791667" stop-color="#F7BDF8"></stop>
</linearGradient>
</defs>
</svg>