<svg width="248" height="248" viewBox="0 0 248 248" fill="none" xmlns="http://www.w3.org/2000/svg" xmlns:xlink="http://www.w3.org/1999/xlink" class="flower" aria-hidden="true" style="translate: none; rotate: none; scale: none; transform: translate(0px, 0px);">
<path fill-rule="evenodd" clip-rule="evenodd" d="M62 124C27.7583 124 0 151.758 0 186C0 220.242 27.7583 248 62 248C96.2417 248 124 220.242 124 186C124 220.242 151.758 248 186 248C220.242 248 248 220.242 248 186C248 151.758 220.242 124 186 124C220.242 124 248 96.2417 248 62C248 27.7583 220.242 0 186 0C151.758 0 124 27.7583 124 62C124 27.7583 96.2417 0 62 0C27.7583 0 0 27.7583 0 62C0 96.2417 27.7583 124 62 124Z" fill="url(#paint0_radial_2080_56318)"></path>
<path fill-rule="evenodd" clip-rule="evenodd" d="M62 124C27.7583 124 0 151.758 0 186C0 220.242 27.7583 248 62 248C96.2417 248 124 220.242 124 186C124 220.242 151.758 248 186 248C220.242 248 248 220.242 248 186C248 151.758 220.242 124 186 124C220.242 124 248 96.2417 248 62C248 27.7583 220.242 0 186 0C151.758 0 124 27.7583 124 62C124 27.7583 96.2417 0 62 0C27.7583 0 0 27.7583 0 62C0 96.2417 27.7583 124 62 124Z" fill="url(#paint1_radial_2080_56318)"></path>
<path fill-rule="evenodd" clip-rule="evenodd" d="M62 124C27.7583 124 0 151.758 0 186C0 220.242 27.7583 248 62 248C96.2417 248 124 220.242 124 186C124 220.242 151.758 248 186 248C220.242 248 248 220.242 248 186C248 151.758 220.242 124 186 124C220.242 124 248 96.2417 248 62C248 27.7583 220.242 0 186 0C151.758 0 124 27.7583 124 62C124 27.7583 96.2417 0 62 0C27.7583 0 0 27.7583 0 62C0 96.2417 27.7583 124 62 124Z" fill="url(#pattern-home-animate-flower-0)" fill-opacity="0.6" style="mix-blend-mode:multiply"></path>
<defs>
<pattern id="pattern-home-animate-flower-0" patternContentUnits="objectBoundingBox" width="0.403226" height="0.403226">
<use xlink:href="#svg-noise" transform="scale(0.000806452)"></use>
</pattern>
<radialGradient id="paint0_radial_2080_56318" cx="0" cy="0" r="1" gradientUnits="userSpaceOnUse" gradientTransform="translate(76.3114 176.859) rotate(-90) scale(194.26 195.353)">
<stop stop-color="#E193FF"></stop>
<stop offset="0.6721" stop-color="#8E78DA"></stop>
<stop offset="0.7378" stop-color="#937DDB"></stop>
<stop offset="0.8164" stop-color="#A28BDD"></stop>
<stop offset="0.9014" stop-color="#BAA3E2"></stop>
<stop offset="0.9905" stop-color="#DBC3E7"></stop>
<stop offset="1" stop-color="#DFC7E8"></stop>
</radialGradient>
<radialGradient id="paint1_radial_2080_56318" cx="0" cy="0" r="1" gradientUnits="userSpaceOnUse" gradientTransform="translate(-27 234) rotate(-68.2758) scale(275.572 434.122)">
<stop stop-color="#FFE2F2"></stop>
<stop offset="0.609375" stop-color="#FFADDA"></stop>
<stop offset="0.776042" stop-color="#FF7CC5"></stop>
<stop offset="0.911458" stop-color="#FF71BF"></stop>
<stop offset="1" stop-color="#F84FAC"></stop>
</radialGradient>
</defs>
</svg>